<?xml version="1.0" encoding="UTF-8"?>
<svg id="Layer_1" data-name="Layer 1" xmlns="http://www.w3.org/2000/svg" viewBox="0 0 1000 279.44">
  <defs>
    <style>
      .cls-1 {
        fill: #f2f2f2;
      }
    </style>
  </defs>
  <g>
    <path class="cls-1" d="M264.78,79.02h33.72c19.69,0,31.6,11.67,31.6,28.54v.24c0,19.1-14.86,29.01-33.37,29.01h-13.8v24.76h-18.16v-82.54ZM297.32,120.65c9.08,0,14.39-5.42,14.39-12.5v-.24c0-8.14-5.66-12.5-14.74-12.5h-14.03v25.23h14.39Z"/>
    <path class="cls-1" d="M331.99,130.32v-.24c0-18.16,14.62-32.9,34.31-32.9s34.08,14.5,34.08,32.66v.24c0,18.16-14.62,32.9-34.31,32.9s-34.08-14.5-34.08-32.66ZM382.7,130.32v-.24c0-9.31-6.72-17.45-16.63-17.45s-16.39,7.9-16.39,17.22v.24c0,9.31,6.72,17.45,16.63,17.45s16.39-7.9,16.39-17.22Z"/>
    <path class="cls-1" d="M402.39,153.19l7.66-11.79c6.84,4.95,14.03,7.55,19.93,7.55,5.19,0,7.55-1.89,7.55-4.72v-.24c0-3.89-6.13-5.19-13.09-7.31-8.84-2.59-18.87-6.72-18.87-18.98v-.24c0-12.85,10.38-20.05,23.11-20.05,8.02,0,16.74,2.71,23.58,7.31l-6.84,12.38c-6.25-3.66-12.5-5.9-17.1-5.9s-6.6,1.89-6.6,4.36v.24c0,3.54,6.01,5.19,12.85,7.55,8.84,2.95,19.1,7.19,19.1,18.75v.24c0,14.03-10.49,20.4-24.17,20.4-8.84,0-18.75-2.95-27.12-9.55Z"/>
    <path class="cls-1" d="M464.66,143.64v-29.95h-7.55v-15.33h7.55v-16.15h17.92v16.15h14.86v15.33h-14.86v27c0,4.13,1.77,6.13,5.78,6.13,3.3,0,6.25-.82,8.84-2.24v14.39c-3.77,2.24-8.14,3.66-14.15,3.66-10.97,0-18.39-4.36-18.39-18.98Z"/>
    <path class="cls-1" d="M502.16,130.32v-.24c0-18.04,12.85-32.9,31.25-32.9,21.11,0,30.78,16.39,30.78,34.31,0,1.42-.12,3.07-.24,4.72h-43.98c1.77,8.14,7.43,12.38,15.45,12.38,6.01,0,10.38-1.89,15.33-6.49l10.26,9.08c-5.9,7.31-14.39,11.79-25.82,11.79-18.98,0-33.02-13.32-33.02-32.66ZM546.73,125.01c-1.06-8.02-5.78-13.44-13.32-13.44s-12.26,5.31-13.68,13.44h27Z"/>
    <path class="cls-1" d="M568.66,130.08v-.24c0-21.11,13.8-32.66,28.77-32.66,9.55,0,15.45,4.36,19.69,9.43v-31.13h17.92v86.08h-17.92v-9.08c-4.36,5.9-10.38,10.26-19.69,10.26-14.74,0-28.77-11.56-28.77-32.66ZM617.36,130.08v-.24c0-10.49-6.96-17.45-15.33-17.45s-15.45,6.84-15.45,17.45v.24c0,10.49,7.08,17.45,15.45,17.45s15.33-6.96,15.33-17.45Z"/>
    <path class="cls-1" d="M670.66,149.54l10.73-12.85c7.43,6.13,15.21,10.02,24.64,10.02,7.43,0,11.91-2.95,11.91-7.78v-.24c0-4.6-2.83-6.96-16.63-10.49-16.63-4.25-27.36-8.84-27.36-25.23v-.24c0-14.98,12.03-24.88,28.89-24.88,12.03,0,22.29,3.77,30.66,10.49l-9.43,13.68c-7.31-5.07-14.5-8.14-21.46-8.14s-10.61,3.18-10.61,7.19v.24c0,5.42,3.54,7.19,17.81,10.85,16.74,4.36,26.18,10.38,26.18,24.76v.24c0,16.39-12.5,25.59-30.3,25.59-12.5,0-25.12-4.36-35.02-13.21Z"/>
    <path class="cls-1" d="M740.83,130.32v-.24c0-18.16,14.62-32.9,34.31-32.9s34.08,14.5,34.08,32.66v.24c0,18.16-14.62,32.9-34.31,32.9s-34.08-14.5-34.08-32.66ZM791.53,130.32v-.24c0-9.31-6.72-17.45-16.63-17.45s-16.39,7.9-16.39,17.22v.24c0,9.31,6.72,17.45,16.63,17.45s16.39-7.9,16.39-17.22Z"/>
    <path class="cls-1" d="M813.11,130.32v-.24c0-18.04,13.8-32.9,33.13-32.9,11.91,0,19.34,4.01,25.23,10.61l-10.97,11.79c-4.01-4.25-8.02-6.96-14.39-6.96-8.96,0-15.33,7.9-15.33,17.22v.24c0,9.67,6.25,17.45,16.04,17.45,6.01,0,10.14-2.59,14.5-6.72l10.49,10.61c-6.13,6.72-13.21,11.56-25.82,11.56-18.98,0-32.9-14.62-32.9-32.66Z"/>
    <path class="cls-1" d="M877.85,75.49h18.87v15.92h-18.87v-15.92ZM878.32,98.36h17.92v63.2h-17.92v-63.2Z"/>
    <path class="cls-1" d="M903.32,143.41v-.24c0-13.8,10.49-20.16,25.47-20.16,6.37,0,10.97,1.06,15.45,2.59v-1.06c0-7.43-4.6-11.56-13.56-11.56-6.84,0-11.67,1.3-17.45,3.42l-4.48-13.68c6.96-3.07,13.8-5.07,24.53-5.07,9.79,0,16.86,2.59,21.34,7.08,4.72,4.72,6.84,11.67,6.84,20.16v36.67h-17.33v-6.84c-4.36,4.83-10.38,8.02-19.1,8.02-11.91,0-21.7-6.84-21.7-19.34ZM944.48,139.28v-3.18c-3.07-1.41-7.07-2.36-11.44-2.36-7.67,0-12.38,3.07-12.38,8.73v.24c0,4.83,4.01,7.66,9.79,7.66,8.37,0,14.03-4.6,14.03-11.08Z"/>
    <path class="cls-1" d="M971.72,75.49h17.92v86.08h-17.92v-86.08Z"/>
  </g>
  <polygon class="cls-1" points="202.39 214.2 111.4 214.2 111.52 178.38 163.92 178.38 163.92 62.27 54.39 62.27 54.39 188.79 111.4 214.2 111.47 256.85 12.14 213.46 12.14 25.44 202.39 25.44 202.39 214.2"/>
</svg>